<?xml version="1.0" encoding="UTF-8"?>
<!DOCTYPE svg PUBLIC "-//W3C//DTD SVG 1.1//EN" "http://www.w3.org/Graphics/SVG/1.1/DTD/svg11.dtd">
<svg xmlns="http://www.w3.org/2000/svg" version="1.1" width="512px" height="512px" style="shape-rendering:geometricPrecision; text-rendering:geometricPrecision; image-rendering:optimizeQuality; fill-rule:evenodd; clip-rule:evenodd" xmlns:xlink="http://www.w3.org/1999/xlink">
<g><path style="opacity:1" fill="#000000" d="M 242.5,-0.5 C 251.167,-0.5 259.833,-0.5 268.5,-0.5C 312.835,7.66375 340.668,33.6638 352,77.5C 353.385,93.4611 353.885,109.461 353.5,125.5C 377.205,125.062 400.872,125.562 424.5,127C 430.492,129.659 434.325,134.159 436,140.5C 446.748,257.31 457.248,374.143 467.5,491C 467.764,495.406 466.931,499.573 465,503.5C 462.228,506.783 459.061,509.45 455.5,511.5C 322.5,511.5 189.5,511.5 56.5,511.5C 46.9116,507.884 42.5782,500.884 43.5,490.5C 53.6694,373.803 64.1694,257.136 75,140.5C 76.6748,134.159 80.5082,129.659 86.5,127C 110.128,125.562 133.795,125.062 157.5,125.5C 151.253,86.6007 161.586,53.1007 188.5,25C 204.129,11.3511 222.129,2.8511 242.5,-0.5 Z M 250.5,36.5 C 284.1,37.0372 305.6,53.3705 315,85.5C 316.332,98.7957 316.832,112.129 316.5,125.5C 275.833,125.5 235.167,125.5 194.5,125.5C 194.168,112.129 194.668,98.7957 196,85.5C 203.668,57.3251 221.835,40.9917 250.5,36.5 Z M 110.5,163.5 C 126.167,163.5 141.833,163.5 157.5,163.5C 157.054,177.24 157.554,190.907 159,204.5C 165.933,214.751 175.1,217.251 186.5,212C 189.04,209.795 191.207,207.295 193,204.5C 194.446,190.907 194.946,177.24 194.5,163.5C 235.167,163.5 275.833,163.5 316.5,163.5C 316.054,177.24 316.554,190.907 318,204.5C 324.933,214.751 334.1,217.251 345.5,212C 348.04,209.795 350.207,207.295 352,204.5C 353.446,190.907 353.946,177.24 353.5,163.5C 369.167,163.5 384.833,163.5 400.5,163.5C 409.594,267.198 418.927,370.865 428.5,474.5C 313.167,474.5 197.833,474.5 82.5,474.5C 91.9532,370.848 101.287,267.182 110.5,163.5 Z"/></g>
</svg>
